<?xml version="1.0" encoding="utf-8"?>
<!-- Generator: Adobe Illustrator 17.0.0, SVG Export Plug-In . SVG Version: 6.00 Build 0)  -->
<!DOCTYPE svg PUBLIC "-//W3C//DTD SVG 1.1//EN" "http://www.w3.org/Graphics/SVG/1.1/DTD/svg11.dtd">
<svg version="1.1" xmlns="http://www.w3.org/2000/svg" xmlns:xlink="http://www.w3.org/1999/xlink" x="0px" y="0px" width="960px"
	 height="560px" viewBox="0 0 960 560" enable-background="new 0 0 960 560" xml:space="preserve">
<g id="Layer_3">
	<polyline fill="#F9D510" points="0,0 960,0 960.308,556.592 0,560 	"/>
</g>
<g id="Layer_2">
	<g>
		<polygon fill="#F9E79B" points="0,560 140.514,285.967 251.855,560 		"/>
	</g>
	<g id="XMLID_1_">
		<g>
			<polygon fill="#DDB819" points="311.73,345.84 452.48,560 306.48,560 			"/>
		</g>
		<g>
		</g>
	</g>
	<g id="XMLID_2_">
		<g>
			<polygon fill="#F7DB63" points="311.73,345.84 311.73,560 251.86,560 140.51,285.97 			"/>
		</g>
		<g>
		</g>
	</g>
	<g id="XMLID_3_">
		<g>
			<polygon fill="#F4E8C1" points="140.51,285.97 0,560 0,314.69 			"/>
		</g>
		<g>
		</g>
	</g>
	<g id="XMLID_4_">
		<g>
			<polygon fill="#F9E79B" points="311.73,345.84 480.16,389.51 470.2,553.83 469.86,560 452.48,560 			"/>
		</g>
		<g>
		</g>
	</g>
	<path fill="#F7DB63" d="M508.484,467.03"/>
	<polygon fill="#F4E8C1" points="687.254,360.817 480.16,389.508 469.86,560 605.593,560 	"/>
	<polygon fill="#F9E79B" points="687.254,360.817 741.326,560 605.593,560 	"/>
	<polygon fill="#F7DB63" points="867.127,301.739 687.254,360.817 741.326,560 807.537,560 	"/>
	<polygon fill="#DDB819" points="867.127,301.739 960,389.644 857.985,560 807.537,560 	"/>
	<polyline fill="#BFA019" points="960.315,560 960.308,556.592 960,389.644 857.985,560 	"/>
</g>
</svg>
